<?xml version="1.0" standalone="no" ?>
<!DOCTYPE svg PUBLIC "-//W3C//DTD SVG 1.1//EN" "http://www.w3.org/Graphics/SVG/1.1/DTD/svg11.dtd">
<svg t="1579670539085" class="icon" viewBox="0 0 1024 1024" version="1.1" xmlns="http://www.w3.org/2000/svg" p-id="1526" width="64" height="64" xmlns:xlink="http://www.w3.org/1999/xlink">
    <defs>
        <style type="text/css"></style>
    </defs>
    <path d="M954.181818 69.818182H69.818182C30.254545 69.818182 0 100.072727 0 139.636364v418.909091c0 65.163636 51.2 116.363636 116.363636 116.363636h791.272728c65.163636 0 116.363636-51.2 116.363636-116.363636V139.636364c0-39.563636-30.254545-69.818182-69.818182-69.818182z m-116.363636 558.545454H186.181818v-116.363636c0-13.963636 9.309091-23.272727 23.272727-23.272727h605.09091c13.963636 0 23.272727 9.309091 23.272727 23.272727v116.363636z m139.636363-69.818181c0 39.563636-30.254545 69.818182-69.818181 69.818181h-23.272728v-116.363636c0-39.563636-30.254545-69.818182-69.818181-69.818182H209.454545c-39.563636 0-69.818182 30.254545-69.818181 69.818182v116.363636H116.363636c-39.563636 0-69.818182-30.254545-69.818181-69.818181V139.636364c0-13.963636 9.309091-23.272727 23.272727-23.272728h884.363636c13.963636 0 23.272727 9.309091 23.272727 23.272728v418.909091z" fill="#1B1B28" p-id="1527"></path>
</svg>